<?xml version="1.0" encoding="UTF-8"?>
<svg xmlns="http://www.w3.org/2000/svg" xmlns:xlink="http://www.w3.org/1999/xlink" width="854" height="480" viewBox="0 0 854 480">
<defs>
<g>
<g id="glyph-0-0">
<path d="M 1.421875 -5.925781 C 1.890625 -5.722656 2.125 -5.570312 2.125 -5.476562 C 2.125 -5.398438 1.992188 -5.355469 1.722656 -5.347656 C 1.578125 -5.046875 1.386719 -4.726562 1.148438 -4.382812 C 0.960938 -4.074219 0.75 -3.773438 0.523438 -3.480469 C 0.726562 -3.480469 0.925781 -3.492188 1.117188 -3.515625 C 1.355469 -3.542969 1.566406 -3.570312 1.753906 -3.609375 C 1.769531 -3.632812 1.785156 -3.65625 1.800781 -3.675781 C 1.945312 -4 2.066406 -4.3125 2.15625 -4.617188 C 2.601562 -4.425781 2.824219 -4.285156 2.824219 -4.199219 C 2.824219 -4.144531 2.703125 -4.113281 2.460938 -4.101562 C 2.21875 -3.707031 1.914062 -3.285156 1.550781 -2.832031 C 1.246094 -2.390625 0.90625 -1.976562 0.53125 -1.585938 C 0.707031 -1.609375 0.871094 -1.628906 1.019531 -1.65625 C 1.214844 -1.6875 1.433594 -1.730469 1.671875 -1.785156 C 1.875 -1.839844 2.105469 -1.902344 2.363281 -1.976562 C 2.355469 -2 2.347656 -2.019531 2.339844 -2.035156 C 2.257812 -2.207031 2.144531 -2.382812 1.996094 -2.558594 L 2.089844 -2.671875 C 2.304688 -2.507812 2.480469 -2.332031 2.605469 -2.148438 C 2.714844 -2.011719 2.800781 -1.871094 2.855469 -1.722656 C 2.894531 -1.628906 2.917969 -1.527344 2.917969 -1.429688 C 2.917969 -1.265625 2.851562 -1.183594 2.726562 -1.183594 C 2.695312 -1.183594 2.667969 -1.203125 2.644531 -1.238281 C 2.617188 -1.261719 2.59375 -1.328125 2.566406 -1.433594 C 2.527344 -1.582031 2.484375 -1.707031 2.4375 -1.816406 C 2.230469 -1.714844 2.046875 -1.636719 1.882812 -1.578125 C 1.6875 -1.5 1.492188 -1.429688 1.304688 -1.375 C 1.144531 -1.3125 0.96875 -1.261719 0.78125 -1.222656 C 0.730469 -1.039062 0.691406 -0.949219 0.660156 -0.949219 C 0.625 -0.949219 0.507812 -1.152344 0.304688 -1.558594 C 0.324219 -1.558594 0.339844 -1.558594 0.355469 -1.566406 C 0.714844 -2 1.003906 -2.382812 1.214844 -2.710938 C 1.386719 -2.953125 1.535156 -3.1875 1.65625 -3.410156 C 1.554688 -3.371094 1.449219 -3.332031 1.34375 -3.296875 C 1.167969 -3.226562 0.980469 -3.160156 0.78125 -3.097656 C 0.714844 -2.941406 0.667969 -2.863281 0.636719 -2.863281 C 0.621094 -2.863281 0.605469 -2.878906 0.585938 -2.910156 C 0.476562 -3.082031 0.386719 -3.265625 0.304688 -3.464844 L 0.339844 -3.464844 C 0.558594 -3.816406 0.730469 -4.125 0.859375 -4.390625 C 1 -4.664062 1.117188 -4.925781 1.207031 -5.171875 C 1.296875 -5.429688 1.371094 -5.679688 1.421875 -5.925781 M 0.386719 -0.457031 C 0.566406 -0.292969 0.703125 -0.128906 0.804688 0.0390625 C 0.902344 0.175781 0.96875 0.3125 1.011719 0.449219 C 1.039062 0.539062 1.054688 0.628906 1.054688 0.722656 C 1.054688 0.902344 0.996094 0.996094 0.882812 0.996094 C 0.855469 0.996094 0.832031 0.980469 0.804688 0.957031 C 0.785156 0.925781 0.765625 0.859375 0.746094 0.757812 C 0.6875 0.511719 0.628906 0.3125 0.570312 0.167969 C 0.503906 0.00390625 0.414062 -0.164062 0.304688 -0.339844 L 0.386719 -0.457031 M 1.183594 -0.757812 C 1.402344 -0.609375 1.570312 -0.453125 1.695312 -0.296875 C 1.804688 -0.164062 1.886719 -0.03125 1.945312 0.0976562 C 1.980469 0.183594 1.996094 0.269531 1.996094 0.355469 C 1.996094 0.519531 1.9375 0.601562 1.824219 0.601562 C 1.789062 0.601562 1.757812 0.585938 1.730469 0.5625 C 1.707031 0.535156 1.679688 0.476562 1.648438 0.378906 C 1.582031 0.152344 1.507812 -0.03125 1.429688 -0.167969 C 1.347656 -0.320312 1.234375 -0.476562 1.085938 -0.644531 L 1.183594 -0.757812 M 2.027344 -1.09375 C 2.234375 -0.976562 2.402344 -0.855469 2.527344 -0.730469 C 2.636719 -0.628906 2.714844 -0.527344 2.765625 -0.425781 C 2.804688 -0.359375 2.824219 -0.289062 2.824219 -0.210938 C 2.824219 -0.0546875 2.773438 0.0234375 2.664062 0.0234375 C 2.636719 0.0234375 2.609375 0.0117188 2.582031 -0.0078125 C 2.558594 -0.0273438 2.53125 -0.0742188 2.507812 -0.152344 C 2.429688 -0.335938 2.355469 -0.484375 2.277344 -0.601562 C 2.199219 -0.722656 2.085938 -0.847656 1.945312 -0.980469 L 2.027344 -1.09375 M 4.738281 -5.902344 C 5.207031 -5.800781 5.4375 -5.707031 5.4375 -5.621094 C 5.4375 -5.566406 5.304688 -5.527344 5.042969 -5.507812 C 4.910156 -5.335938 4.753906 -5.167969 4.566406 -5.011719 L 6.617188 -5.011719 L 6.859375 -5.347656 C 7.039062 -5.242188 7.175781 -5.132812 7.261719 -5.027344 C 7.300781 -4.988281 7.320312 -4.953125 7.320312 -4.929688 C 7.320312 -4.878906 7.230469 -4.796875 7.046875 -4.679688 L 7.046875 -2.832031 C 7.046875 -2.453125 7.054688 -2.207031 7.0625 -2.089844 C 7.074219 -1.941406 7.078125 -1.824219 7.078125 -1.730469 C 7.078125 -1.664062 7.050781 -1.609375 6.996094 -1.566406 C 6.925781 -1.535156 6.867188 -1.519531 6.828125 -1.519531 C 6.730469 -1.519531 6.683594 -1.550781 6.683594 -1.617188 L 6.683594 -1.824219 L 3.765625 -1.824219 L 3.765625 -1.617188 C 3.765625 -1.550781 3.714844 -1.519531 3.609375 -1.519531 C 3.566406 -1.519531 3.515625 -1.535156 3.449219 -1.566406 C 3.390625 -1.609375 3.363281 -1.664062 3.363281 -1.730469 C 3.363281 -1.824219 3.371094 -1.941406 3.386719 -2.089844 C 3.417969 -2.207031 3.433594 -2.453125 3.433594 -2.832031 L 3.433594 -4.839844 C 3.433594 -5.035156 3.410156 -5.207031 3.363281 -5.347656 L 3.828125 -5.011719 L 4.359375 -5.011719 C 4.480469 -5.148438 4.570312 -5.285156 4.625 -5.421875 C 4.671875 -5.542969 4.707031 -5.703125 4.738281 -5.902344 M 3.765625 -2.035156 L 6.683594 -2.035156 L 6.683594 -4.808594 L 3.765625 -4.808594 L 3.765625 -2.035156 M 4.945312 -4.648438 C 5.371094 -4.59375 5.582031 -4.535156 5.582031 -4.472656 C 5.582031 -4.382812 5.472656 -4.328125 5.25 -4.3125 C 5.148438 -4.117188 5.046875 -3.960938 4.945312 -3.84375 C 4.933594 -3.832031 4.925781 -3.824219 4.914062 -3.8125 C 4.960938 -3.78125 5.003906 -3.757812 5.042969 -3.738281 C 5.226562 -3.640625 5.382812 -3.550781 5.515625 -3.464844 C 5.679688 -3.679688 5.796875 -3.90625 5.855469 -4.140625 C 6.28125 -4.074219 6.492188 -4.011719 6.492188 -3.957031 C 6.492188 -3.867188 6.382812 -3.816406 6.160156 -3.804688 C 6.027344 -3.59375 5.902344 -3.414062 5.789062 -3.273438 C 5.917969 -3.183594 6.039062 -3.089844 6.144531 -2.992188 C 6.191406 -2.953125 6.230469 -2.902344 6.265625 -2.839844 C 6.304688 -2.785156 6.332031 -2.730469 6.34375 -2.679688 C 6.367188 -2.640625 6.378906 -2.589844 6.378906 -2.527344 C 6.378906 -2.402344 6.335938 -2.339844 6.25 -2.339844 C 6.242188 -2.339844 6.21875 -2.355469 6.183594 -2.390625 C 6.125 -2.480469 6.039062 -2.582031 5.917969 -2.703125 C 5.832031 -2.808594 5.714844 -2.925781 5.566406 -3.046875 C 5.441406 -2.925781 5.285156 -2.796875 5.105469 -2.664062 C 4.894531 -2.5 4.621094 -2.34375 4.277344 -2.195312 L 4.191406 -2.339844 C 4.5 -2.511719 4.753906 -2.6875 4.953125 -2.863281 C 5.109375 -2.988281 5.234375 -3.113281 5.332031 -3.234375 C 5.175781 -3.355469 4.988281 -3.484375 4.777344 -3.621094 C 4.765625 -3.628906 4.757812 -3.632812 4.753906 -3.636719 C 4.699219 -3.585938 4.640625 -3.535156 4.578125 -3.484375 C 4.453125 -3.363281 4.285156 -3.246094 4.070312 -3.128906 L 3.972656 -3.289062 C 4.15625 -3.414062 4.304688 -3.546875 4.429688 -3.683594 C 4.464844 -3.71875 4.492188 -3.753906 4.511719 -3.78125 C 4.339844 -3.894531 4.167969 -3.980469 4.003906 -4.039062 L 4.132812 -4.199219 C 4.320312 -4.117188 4.488281 -4.039062 4.640625 -3.957031 C 4.6875 -4.011719 4.722656 -4.070312 4.746094 -4.132812 C 4.84375 -4.296875 4.910156 -4.472656 4.945312 -4.648438 M 3.523438 -0.980469 L 3.636719 -0.980469 C 3.636719 -0.652344 3.617188 -0.378906 3.570312 -0.167969 C 3.542969 -0.0117188 3.5 0.128906 3.441406 0.25 C 3.394531 0.355469 3.335938 0.449219 3.265625 0.523438 C 3.230469 0.570312 3.191406 0.601562 3.144531 0.621094 C 3.113281 0.648438 3.074219 0.660156 3.03125 0.660156 C 2.914062 0.660156 2.855469 0.601562 2.855469 0.484375 C 2.855469 0.460938 2.867188 0.433594 2.894531 0.402344 C 3.019531 0.277344 3.125 0.15625 3.207031 0.0390625 C 3.296875 -0.0898438 3.359375 -0.226562 3.394531 -0.371094 C 3.457031 -0.527344 3.5 -0.730469 3.523438 -0.980469 M 4.277344 -1.398438 C 4.550781 -1.347656 4.773438 -1.277344 4.953125 -1.183594 C 4.988281 -1.164062 5.003906 -1.132812 5.003906 -1.09375 C 5.003906 -1.070312 4.976562 -1.046875 4.921875 -1.023438 C 4.855469 -0.980469 4.773438 -0.945312 4.671875 -0.917969 L 4.671875 0.328125 C 4.671875 0.449219 4.683594 0.527344 4.707031 0.5625 C 4.753906 0.628906 4.824219 0.664062 4.921875 0.667969 C 5.042969 0.683594 5.203125 0.691406 5.398438 0.691406 C 5.644531 0.691406 5.8125 0.683594 5.910156 0.667969 C 6 0.652344 6.0625 0.609375 6.097656 0.539062 C 6.164062 0.417969 6.226562 0.15625 6.28125 -0.25 L 6.410156 -0.210938 L 6.410156 0.355469 C 6.410156 0.4375 6.441406 0.507812 6.5 0.5625 C 6.621094 0.636719 6.683594 0.703125 6.683594 0.757812 C 6.683594 0.808594 6.652344 0.851562 6.585938 0.882812 C 6.519531 0.917969 6.390625 0.945312 6.207031 0.964844 C 5.992188 1.003906 5.703125 1.023438 5.339844 1.023438 C 5.105469 1.023438 4.898438 1.019531 4.714844 1.003906 C 4.566406 0.992188 4.457031 0.945312 4.390625 0.867188 C 4.335938 0.800781 4.304688 0.695312 4.304688 0.546875 L 4.304688 -0.886719 C 4.304688 -1.054688 4.296875 -1.226562 4.277344 -1.398438 M 5.277344 -1.585938 C 5.484375 -1.484375 5.652344 -1.382812 5.78125 -1.277344 C 5.886719 -1.191406 5.964844 -1.105469 6.015625 -1.023438 C 6.054688 -0.96875 6.074219 -0.910156 6.074219 -0.851562 C 6.074219 -0.695312 6.023438 -0.613281 5.917969 -0.613281 C 5.886719 -0.613281 5.859375 -0.621094 5.832031 -0.636719 C 5.808594 -0.660156 5.78125 -0.703125 5.757812 -0.765625 C 5.679688 -0.925781 5.605469 -1.046875 5.527344 -1.140625 C 5.449219 -1.246094 5.335938 -1.351562 5.1875 -1.457031 L 5.277344 -1.585938 M 6.714844 -0.851562 C 6.933594 -0.703125 7.101562 -0.550781 7.222656 -0.394531 C 7.335938 -0.269531 7.414062 -0.144531 7.464844 -0.0234375 C 7.507812 0.0664062 7.527344 0.15625 7.527344 0.242188 C 7.527344 0.40625 7.46875 0.484375 7.351562 0.484375 C 7.320312 0.484375 7.292969 0.472656 7.261719 0.449219 C 7.234375 0.417969 7.207031 0.355469 7.175781 0.257812 C 7.113281 0.0390625 7.039062 -0.136719 6.957031 -0.273438 C 6.875 -0.421875 6.761719 -0.570312 6.617188 -0.730469 Z "/>
</g>
<g id="glyph-0-1">
<path d="M 1.519531 -5.925781 C 1.984375 -5.722656 2.21875 -5.570312 2.21875 -5.476562 C 2.21875 -5.398438 2.085938 -5.355469 1.824219 -5.347656 C 1.65625 -5.046875 1.4375 -4.726562 1.167969 -4.382812 C 0.96875 -4.074219 0.730469 -3.773438 0.464844 -3.480469 C 0.714844 -3.480469 0.960938 -3.492188 1.191406 -3.515625 C 1.433594 -3.542969 1.660156 -3.570312 1.867188 -3.601562 C 1.886719 -3.625 1.902344 -3.652344 1.914062 -3.675781 C 2.082031 -4 2.210938 -4.3125 2.300781 -4.617188 C 2.746094 -4.425781 2.96875 -4.285156 2.96875 -4.199219 C 2.96875 -4.144531 2.847656 -4.113281 2.605469 -4.101562 C 2.351562 -3.707031 2.023438 -3.285156 1.617188 -2.832031 C 1.285156 -2.390625 0.914062 -1.976562 0.507812 -1.578125 C 0.714844 -1.601562 0.902344 -1.621094 1.0625 -1.648438 C 1.285156 -1.679688 1.53125 -1.71875 1.800781 -1.769531 C 2.03125 -1.816406 2.292969 -1.875 2.582031 -1.953125 C 2.566406 -1.988281 2.554688 -2.015625 2.542969 -2.035156 C 2.457031 -2.207031 2.347656 -2.382812 2.21875 -2.558594 L 2.300781 -2.671875 C 2.507812 -2.507812 2.675781 -2.332031 2.800781 -2.148438 C 2.910156 -2.011719 2.988281 -1.871094 3.039062 -1.722656 C 3.078125 -1.628906 3.097656 -1.527344 3.097656 -1.429688 C 3.097656 -1.265625 3.039062 -1.183594 2.917969 -1.183594 C 2.886719 -1.183594 2.859375 -1.203125 2.832031 -1.238281 C 2.808594 -1.261719 2.78125 -1.328125 2.75 -1.433594 C 2.714844 -1.566406 2.679688 -1.6875 2.644531 -1.792969 C 2.40625 -1.695312 2.191406 -1.621094 2.003906 -1.566406 C 1.777344 -1.484375 1.558594 -1.417969 1.351562 -1.367188 C 1.164062 -1.3125 0.964844 -1.261719 0.75 -1.222656 C 0.703125 -1.039062 0.664062 -0.949219 0.636719 -0.949219 C 0.597656 -0.949219 0.476562 -1.152344 0.273438 -1.558594 C 0.292969 -1.558594 0.3125 -1.558594 0.335938 -1.566406 C 0.722656 -2 1.035156 -2.382812 1.269531 -2.710938 C 1.449219 -2.949219 1.609375 -3.175781 1.738281 -3.394531 C 1.632812 -3.355469 1.523438 -3.320312 1.414062 -3.296875 C 1.195312 -3.226562 0.964844 -3.160156 0.722656 -3.097656 C 0.65625 -2.941406 0.609375 -2.863281 0.578125 -2.863281 C 0.5625 -2.863281 0.542969 -2.878906 0.523438 -2.910156 C 0.417969 -3.082031 0.324219 -3.265625 0.242188 -3.464844 L 0.296875 -3.464844 C 0.535156 -3.816406 0.726562 -4.125 0.875 -4.390625 C 1.03125 -4.664062 1.160156 -4.925781 1.269531 -5.171875 C 1.371094 -5.429688 1.453125 -5.679688 1.519531 -5.925781 M 0.386719 -0.457031 C 0.589844 -0.292969 0.75 -0.128906 0.867188 0.0390625 C 0.96875 0.175781 1.042969 0.3125 1.09375 0.449219 C 1.132812 0.539062 1.15625 0.628906 1.15625 0.722656 C 1.15625 0.902344 1.09375 0.996094 0.972656 0.996094 C 0.941406 0.996094 0.914062 0.980469 0.886719 0.957031 C 0.867188 0.925781 0.84375 0.859375 0.820312 0.757812 C 0.75 0.511719 0.679688 0.3125 0.613281 0.167969 C 0.539062 0.00390625 0.433594 -0.164062 0.304688 -0.339844 L 0.386719 -0.457031 M 1.296875 -0.757812 C 1.542969 -0.609375 1.734375 -0.453125 1.875 -0.296875 C 1.996094 -0.164062 2.089844 -0.03125 2.148438 0.0976562 C 2.195312 0.183594 2.21875 0.269531 2.21875 0.355469 C 2.21875 0.519531 2.15625 0.601562 2.027344 0.601562 C 1.992188 0.601562 1.960938 0.585938 1.9375 0.5625 C 1.90625 0.535156 1.875 0.476562 1.84375 0.378906 C 1.765625 0.152344 1.679688 -0.03125 1.59375 -0.167969 C 1.5 -0.320312 1.371094 -0.476562 1.214844 -0.644531 L 1.296875 -0.757812 M 2.25 -1.09375 C 2.476562 -0.960938 2.660156 -0.824219 2.796875 -0.675781 C 2.917969 -0.558594 3.003906 -0.445312 3.0625 -0.335938 C 3.105469 -0.253906 3.128906 -0.171875 3.128906 -0.0898438 C 3.128906 0.0703125 3.074219 0.152344 2.96875 0.152344 C 2.933594 0.152344 2.902344 0.140625 2.878906 0.113281 C 2.847656 0.0898438 2.816406 0.03125 2.789062 -0.0625 C 2.707031 -0.261719 2.621094 -0.425781 2.535156 -0.546875 C 2.441406 -0.6875 2.3125 -0.832031 2.15625 -0.980469 L 2.25 -1.09375 M 3.160156 -4.707031 C 3.378906 -4.648438 3.667969 -4.617188 4.03125 -4.617188 L 5.164062 -4.617188 L 5.164062 -5.285156 C 5.164062 -5.558594 5.15625 -5.765625 5.132812 -5.902344 C 5.417969 -5.867188 5.65625 -5.808594 5.847656 -5.734375 C 5.914062 -5.703125 5.945312 -5.664062 5.945312 -5.621094 C 5.945312 -5.578125 5.914062 -5.550781 5.847656 -5.527344 C 5.757812 -5.484375 5.648438 -5.457031 5.523438 -5.445312 L 5.523438 -4.617188 L 6.714844 -4.617188 L 7.046875 -4.980469 C 7.230469 -4.859375 7.398438 -4.738281 7.558594 -4.609375 C 7.601562 -4.589844 7.625 -4.566406 7.625 -4.535156 C 7.625 -4.449219 7.59375 -4.40625 7.527344 -4.40625 L 5.523438 -4.40625 L 5.523438 -2.953125 L 6.410156 -2.953125 L 6.746094 -3.3125 C 6.925781 -3.183594 7.097656 -3.0625 7.253906 -2.945312 C 7.300781 -2.921875 7.320312 -2.894531 7.320312 -2.863281 C 7.320312 -2.777344 7.289062 -2.734375 7.222656 -2.734375 L 4.464844 -2.734375 C 4.105469 -2.730469 3.863281 -2.71875 3.738281 -2.703125 L 3.578125 -3.039062 C 3.800781 -2.980469 4.097656 -2.953125 4.464844 -2.953125 L 5.164062 -2.953125 L 5.164062 -4.40625 L 4.03125 -4.40625 C 3.679688 -4.398438 3.433594 -4.390625 3.304688 -4.375 L 3.160156 -4.707031 M 3.699219 -1.859375 L 4.160156 -1.617188 L 6.523438 -1.617188 L 6.746094 -1.859375 C 7.003906 -1.699219 7.132812 -1.585938 7.132812 -1.519531 C 7.132812 -1.46875 7.0625 -1.398438 6.917969 -1.3125 L 6.917969 0.386719 C 6.996094 0.441406 7.0625 0.496094 7.125 0.546875 C 7.148438 0.566406 7.164062 0.585938 7.164062 0.601562 C 7.164062 0.679688 7.144531 0.722656 7.109375 0.722656 L 4.070312 0.722656 L 4.070312 0.964844 C 4.070312 1.011719 4.039062 1.046875 3.972656 1.078125 C 3.902344 1.109375 3.84375 1.125 3.796875 1.125 C 3.730469 1.125 3.699219 1.089844 3.699219 1.023438 L 3.699219 -1.859375 M 4.070312 0.515625 L 6.554688 0.515625 L 6.554688 -1.398438 L 4.070312 -1.398438 Z "/>
</g>
</g>
</defs>
<g fill="rgb(96.862745%, 85.098039%, 43.529412%)" fill-opacity="1">
<use xlink:href="#glyph-0-0" x="30" y="26.227539"/>
<use xlink:href="#glyph-0-1" x="38" y="26.227539"/>
</g>
</svg>
